<svg id="Layer_1" data-name="Layer 1" xmlns="http://www.w3.org/2000/svg" viewBox="0 0 1050.22 750"><title>Hamburger_icon</title><path d="M43.25-194q-224.2,0-448.43,0c-37.32,0-67.36-24.12-75.1-60.09-9.63-44.77,25.26-88.9,71-89.87,1.5,0,3,0,4.5,0H491.13c35.31,0,64.59,21.31,74,53.78,14.09,48.4-21.73,96.13-72.49,96.18q-176,.18-351.94,0Z" transform="translate(481.89 343.99)"/><path d="M42.66,106q-224,0-447.93,0c-37.27,0-67.35-24.2-75-60.17C-489.87,1-454.94-43-409.13-44c1.5,0,3,0,4.5,0H491.22c34.18,0,62.62,19.91,73,51,16.48,49.15-19.73,98.93-72.18,99Q267.38,106.09,42.66,106Z" transform="translate(481.89 343.99)"/><path d="M43.77,256Q268,256,492.2,256c36.88,0,66.88,24.33,74.54,60.14C576.32,361,541.43,405,495.61,406c-1.67,0-3.34,0-5,0H-404.25c-34.38,0-62.75-19.55-73.44-50.53-16.87-48.92,19.3-99.39,71.53-99.43q212.72-.15,425.44,0Z" transform="translate(481.89 343.99)"/></svg>